<svg width="163" height="32" viewBox="0 0 163 32" fill="none" xmlns="http://www.w3.org/2000/svg">
<g clip-path="url(#clip0_2079_3527)">
<path d="M24.1002 2.10986C24.1202 2.32986 24.1302 2.54986 24.1302 2.76986C24.1302 7.05986 20.7402 10.5499 16.4802 10.7099C16.4702 10.4999 16.4502 10.2799 16.4502 10.0599C16.4502 5.75986 19.8502 2.26986 24.1002 2.10986Z" fill="white"/>
<path d="M29.7599 10.2C29.7599 15.97 24.5399 20.64 18.0899 20.64C11.6399 20.64 6.41992 15.97 6.41992 10.2C6.41992 5.2 10.3699 1.01 15.6199 0C12.3799 1.39 10.1299 4.39 10.1299 7.87C10.1299 12.67 14.3899 16.55 19.6499 16.55C24.9099 16.55 29.1599 12.67 29.1599 7.87C29.1599 7.48 29.1299 7.09 29.0699 6.71C29.5099 7.8 29.7399 8.97 29.7399 10.2H29.7599Z" fill="white"/>
<path d="M32.1502 16.7802C32.1502 16.7802 32.0502 17.2802 31.6302 17.8902C29.4802 20.5202 26.1502 22.1902 22.9202 23.0602C19.0402 24.1102 14.6102 24.4202 10.8802 22.6702C7.58023 21.1102 4.80023 18.2402 3.73023 14.7102C3.41023 13.6402 3.26023 12.5302 3.28023 11.4102C3.32023 9.5902 3.84023 7.7902 4.75023 6.2102C5.21023 5.4002 5.76023 4.6502 6.39023 3.9702C6.71023 3.6302 7.04023 3.2902 7.39023 2.9802C7.64023 2.7502 7.98023 2.3802 8.30023 2.2002C8.11024 2.3002 7.91023 2.4102 7.73023 2.5302C7.15023 2.8702 6.60023 3.2502 6.08023 3.6702C5.91023 3.8002 5.74023 3.9402 5.57023 4.0802C5.49023 4.1402 5.41023 4.2102 5.34023 4.2802C3.98023 5.6402 2.68023 7.1202 1.90023 8.9002C1.09023 10.7202 0.810234 12.8302 0.960234 14.8002C1.08023 16.4002 1.48023 17.9202 2.11023 19.3302C2.17023 19.4602 2.23023 19.5902 2.29023 19.7202C2.36023 19.8702 2.43023 20.0302 2.52023 20.1802C3.17023 21.4102 4.00023 22.5302 4.98023 23.5302C5.10023 23.6602 5.24023 23.7902 5.37023 23.9102C5.50023 24.0402 5.64023 24.1602 5.78023 24.2802C8.97023 27.1002 13.4302 28.6902 18.2302 28.3302C20.4502 28.1602 22.6302 27.5902 24.6302 26.6202C24.6402 26.6102 24.6602 26.6002 24.6902 26.5902C24.6902 26.5902 24.6902 26.5902 24.7002 26.5902C24.7102 26.5902 24.7402 26.5702 24.7902 26.5502C25.4002 26.2502 28.6702 24.6002 30.3902 22.0802C30.3902 22.0802 30.3936 22.0835 30.4002 22.0902C29.8802 22.9302 27.8102 25.8602 23.4802 28.1302C23.4802 28.1302 23.4702 28.1302 23.4602 28.1302C21.3102 29.1202 18.9102 29.6802 16.3902 29.6802C8.44023 29.6802 1.78023 24.1902 -0.00976562 16.7902C0.570234 25.2402 7.60023 31.9102 16.2002 31.9102C23.2102 31.9102 29.1902 27.4702 31.4702 21.2402C31.4702 21.2402 31.4702 21.2202 31.4802 21.2102C31.8002 20.4902 31.9902 19.7402 32.0902 19.0602C32.0902 19.0002 32.1002 18.9602 32.1102 18.9002C32.3002 17.5602 32.1602 16.5702 32.1402 16.7802H32.1502Z" fill="white"/>
<path d="M43.9198 5.67018C43.2398 5.67018 42.6698 5.45018 42.2098 5.01018C41.7498 4.57018 41.5098 4.00018 41.5098 3.30018C41.5098 2.60018 41.7398 2.03018 42.2098 1.59018C42.6698 1.15018 43.2398 0.930176 43.9198 0.930176C44.5998 0.930176 45.1998 1.15018 45.6498 1.59018C46.0998 2.03018 46.3298 2.60018 46.3298 3.30018C46.3298 4.00018 46.0998 4.57018 45.6498 5.01018C45.1998 5.45018 44.6198 5.67018 43.9198 5.67018ZM42.1598 24.6702V7.94018H45.6498V24.6702H42.1598Z" fill="white"/>
<path d="M58.8104 25.1399C57.0204 25.1399 55.4404 24.8199 54.0604 24.1899C52.6804 23.5599 51.6004 22.6199 50.8204 21.3899C50.0404 20.1599 49.6504 18.6599 49.6504 16.8899V16.0399H53.2804V16.8899C53.2804 18.5599 53.7804 19.8199 54.7904 20.6599C55.8004 21.4999 57.1404 21.9099 58.8104 21.9099C60.4804 21.9099 61.7804 21.5499 62.6404 20.8399C63.5004 20.1299 63.9304 19.2099 63.9304 18.0699C63.9304 17.3199 63.7304 16.7099 63.3204 16.2399C62.9104 15.7699 62.3404 15.3899 61.5904 15.0999C60.8404 14.8199 59.9504 14.5499 58.9104 14.2999L57.6504 13.9899C56.1304 13.6299 54.8204 13.1799 53.7004 12.6499C52.5804 12.1199 51.7204 11.4099 51.1104 10.5299C50.5004 9.64992 50.1904 8.51992 50.1904 7.13992C50.1904 5.75992 50.5304 4.53992 51.2204 3.53992C51.9104 2.53992 52.8704 1.76992 54.0904 1.22992C55.3104 0.689922 56.7504 0.419922 58.4004 0.419922C60.0504 0.419922 61.5304 0.699922 62.8304 1.26992C64.1304 1.83992 65.1504 2.66992 65.9004 3.77992C66.6504 4.88992 67.0204 6.27992 67.0204 7.94992V9.16992H63.3904V7.94992C63.3904 6.92992 63.1804 6.10992 62.7604 5.46992C62.3404 4.83992 61.7604 4.36992 61.0104 4.07992C60.2604 3.78992 59.3904 3.63992 58.4004 3.63992C56.9504 3.63992 55.8304 3.93992 55.0204 4.53992C54.2204 5.13992 53.8204 5.96992 53.8204 7.02992C53.8204 7.74992 54.0004 8.34992 54.3504 8.80992C54.7004 9.26992 55.2104 9.64992 55.8904 9.94992C56.5704 10.2499 57.4204 10.5099 58.4304 10.7299L59.6904 11.0299C61.2304 11.3699 62.5804 11.8099 63.7604 12.3399C64.9404 12.8699 65.8604 13.5899 66.5404 14.4899C67.2204 15.3999 67.5604 16.5599 67.5604 17.9899C67.5604 19.4199 67.2004 20.6599 66.4904 21.7199C65.7804 22.7799 64.7604 23.6099 63.4504 24.2099C62.1404 24.8099 60.5904 25.1099 58.8004 25.1099L58.8104 25.1399Z" fill="white"/>
<path d="M71.5002 31.4602V7.94022H74.9302V10.3502H75.4702C75.9002 9.60022 76.5502 8.94022 77.4202 8.35022C78.2902 7.76022 79.5402 7.47021 81.1702 7.47021C82.5702 7.47021 83.8602 7.81021 85.0202 8.49021C86.1802 9.17021 87.1202 10.1502 87.8402 11.4302C88.5502 12.7102 88.9102 14.2502 88.9102 16.0602V16.5702C88.9102 18.3802 88.5602 19.9202 87.8602 21.2002C87.1602 22.4802 86.2202 23.4602 85.0402 24.1402C83.8602 24.8202 82.5702 25.1602 81.1702 25.1602C80.0802 25.1602 79.1702 25.0202 78.4202 24.7502C77.6702 24.4802 77.0702 24.1302 76.6202 23.7202C76.1702 23.3002 75.8102 22.8702 75.5302 22.4102H74.9902V31.4702H71.4902L71.5002 31.4602ZM80.1502 22.0902C81.6902 22.0902 82.9402 21.6002 83.9202 20.6302C84.9002 19.6602 85.3802 18.2702 85.3802 16.4602V16.1502C85.3802 14.3602 84.8902 12.9802 83.9002 12.0102C82.9202 11.0402 81.6702 10.5502 80.1502 10.5502C78.6302 10.5502 77.4202 11.0402 76.4302 12.0102C75.4502 12.9802 74.9502 14.3602 74.9502 16.1502V16.4602C74.9502 18.2702 75.4402 19.6602 76.4302 20.6302C77.4102 21.6002 78.6502 22.0902 80.1502 22.0902Z" fill="white"/>
<path d="M93.2502 24.6699V0.919922H96.7502V10.3199H97.2902C97.5202 9.88992 97.8402 9.46992 98.2602 9.05992C98.6802 8.64992 99.2302 8.31992 99.9202 8.05992C100.61 7.79992 101.49 7.66992 102.55 7.66992C103.82 7.66992 104.94 7.94992 105.93 8.51992C106.91 9.07992 107.69 9.87992 108.25 10.9099C108.81 11.9399 109.1 13.1799 109.1 14.6299V24.6699H105.61V14.8999C105.61 13.4499 105.25 12.3799 104.52 11.6899C103.8 10.9999 102.8 10.6599 101.53 10.6599C100.08 10.6599 98.9202 11.1299 98.0502 12.0799C97.1802 13.0299 96.7402 14.4099 96.7402 16.2199V24.6699H93.2402H93.2502Z" fill="white"/>
<path d="M121.78 25.14C120.08 25.14 118.6 24.78 117.34 24.07C116.07 23.36 115.08 22.35 114.37 21.05C113.66 19.75 113.3 18.24 113.3 16.52V16.11C113.3 14.37 113.65 12.85 114.35 11.55C115.05 10.25 116.03 9.23996 117.29 8.52996C118.54 7.81996 120 7.45996 121.65 7.45996C123.3 7.45996 124.66 7.81996 125.87 8.52996C127.08 9.23996 128.03 10.23 128.7 11.5C129.38 12.77 129.72 14.25 129.72 15.94V17.26H116.86C116.91 18.73 117.4 19.9 118.34 20.77C119.28 21.64 120.45 22.08 121.85 22.08C123.16 22.08 124.15 21.79 124.82 21.2C125.49 20.61 126 19.93 126.36 19.16L129.24 20.65C128.92 21.28 128.46 21.95 127.87 22.65C127.27 23.35 126.48 23.94 125.51 24.41C124.54 24.89 123.29 25.12 121.78 25.12V25.14ZM116.9 14.59H126.16C126.07 13.32 125.62 12.33 124.8 11.62C123.99 10.91 122.92 10.55 121.61 10.55C120.3 10.55 119.23 10.91 118.4 11.62C117.57 12.33 117.07 13.32 116.89 14.59H116.9Z" fill="white"/>
<path d="M133.93 24.6699V7.93988H137.36V9.90988H137.9C138.17 9.20988 138.61 8.68988 139.21 8.36988C139.81 8.03988 140.55 7.87988 141.43 7.87988H143.43V11.0399H141.29C140.16 11.0399 139.23 11.3499 138.51 11.9699C137.79 12.5899 137.42 13.5499 137.42 14.8399V24.6799H133.92L133.93 24.6699Z" fill="white"/>
<path d="M154.11 25.14C152.41 25.14 150.93 24.78 149.67 24.07C148.41 23.36 147.41 22.35 146.7 21.05C145.99 19.75 145.63 18.24 145.63 16.52V16.11C145.63 14.37 145.98 12.85 146.68 11.55C147.38 10.25 148.36 9.23996 149.61 8.52996C150.87 7.81996 152.32 7.45996 153.97 7.45996C155.62 7.45996 156.98 7.81996 158.19 8.52996C159.4 9.23996 160.35 10.23 161.02 11.5C161.7 12.77 162.04 14.25 162.04 15.94V17.26H149.18C149.23 18.73 149.72 19.9 150.66 20.77C151.6 21.64 152.77 22.08 154.17 22.08C155.48 22.08 156.47 21.79 157.14 21.2C157.81 20.61 158.32 19.93 158.68 19.16L161.56 20.65C161.24 21.28 160.78 21.95 160.19 22.65C159.59 23.35 158.8 23.94 157.83 24.41C156.86 24.89 155.61 25.12 154.1 25.12L154.11 25.14ZM149.23 14.59H158.49C158.4 13.32 157.95 12.33 157.13 11.62C156.32 10.91 155.25 10.55 153.94 10.55C152.63 10.55 151.56 10.91 150.73 11.62C149.9 12.33 149.4 13.32 149.22 14.59H149.23Z" fill="white"/>
</g>
<defs>
<clipPath id="clip0_2079_3527">
<rect width="162.05" height="31.9" fill="white"/>
</clipPath>
</defs>
</svg>
